<?xml version="1.0" standalone="no"?>
<!DOCTYPE svg PUBLIC "-//W3C//DTD SVG 20010904//EN"
 "http://www.w3.org/TR/2001/REC-SVG-20010904/DTD/svg10.dtd">
<svg version="1.0" xmlns="http://www.w3.org/2000/svg"
 width="259.000000pt" height="194.000000pt" viewBox="0 0 259.000000 194.000000"
 preserveAspectRatio="xMidYMid meet">
<metadata>
Created by potrace 1.16, written by Peter Selinger 2001-2019
</metadata>
<g transform="translate(0.000000,194.000000) scale(0.100000,-0.100000)"
fill="#000000" stroke="none">
<path d="M568 1621 c-81 -42 -150 -80 -154 -83 -3 -3 -2 -22 1 -42 6 -29 12
-36 31 -36 16 0 25 -7 28 -22 27 -129 27 -129 55 -124 14 3 53 10 86 15 33 6
91 15 128 22 l69 12 -6 56 c-4 31 -9 77 -12 102 l-6 47 49 5 c144 15 548 -7
695 -38 39 -9 76 -11 89 -7 16 6 -9 14 -92 30 -109 21 -146 26 -249 37 -44 5
-467 7 -504 2 -15 -2 -22 9 -34 51 -8 28 -17 52 -21 51 -3 0 -72 -35 -153 -78z
m206 -138 c13 -82 18 -77 -115 -113 -67 -17 -125 -28 -130 -23 -4 4 -9 26 -11
48 l-3 39 120 42 c66 23 123 43 126 43 4 1 9 -16 13 -36z"/>
<path d="M2027 1320 c-50 -9 -81 -41 -83 -83 0 -17 -4 -45 -9 -61 -11 -40 19
-98 49 -94 16 2 22 -3 24 -21 3 -21 1 -23 -20 -18 -12 4 -35 7 -50 7 -23 0
-28 4 -28 24 0 14 -4 28 -10 31 -6 4 -10 -5 -10 -19 0 -16 -6 -26 -15 -26 -8
0 -15 -4 -15 -10 0 -5 7 -10 15 -10 9 0 12 -6 9 -15 -8 -20 20 -30 43 -15 16
10 16 11 1 6 -10 -3 -18 -1 -18 4 0 6 11 10 25 10 18 0 25 -5 25 -20 0 -12 7
-20 16 -20 13 0 15 -7 11 -30 -6 -29 -5 -30 29 -30 l36 0 -6 70 c-4 55 -3 70
8 70 7 0 21 9 31 20 18 20 35 22 47 5 4 -6 9 -1 10 10 2 23 2 25 13 118 11
101 -13 120 -128 97z"/>
<path d="M530 1264 c-289 -51 -290 -51 -290 -24 0 11 -3 20 -7 20 -5 0 -59
-21 -121 -46 -84 -35 -112 -51 -112 -65 0 -10 8 -20 18 -23 13 -4 21 -25 31
-78 7 -40 19 -95 27 -122 14 -51 12 -66 -12 -66 -9 0 -14 -12 -14 -37 -1 -21
-8 -56 -16 -78 -9 -22 -18 -50 -21 -61 -7 -29 23 -83 52 -94 13 -5 29 -18 34
-29 17 -31 68 -62 102 -63 l31 -1 -7 -61 c-3 -33 -11 -66 -16 -72 -13 -16 29
-31 66 -24 19 4 30 11 29 22 -1 9 -5 45 -8 81 l-7 64 40 6 c62 8 130 52 138
88 3 16 12 29 19 29 8 0 14 7 14 15 0 11 11 15 38 15 20 0 50 7 65 15 16 8 40
12 56 9 16 -3 38 -1 49 5 15 8 29 8 48 0 55 -20 103 16 84 63 l-9 23 0 -22
c-1 -27 -39 -40 -68 -25 -20 11 -115 9 -146 -3 -10 -4 -37 -4 -60 1 -36 8 -42
13 -42 34 0 15 -6 26 -17 28 -9 2 -20 16 -23 33 -8 33 -38 59 -64 52 -9 -2
-25 5 -35 16 -11 12 -29 21 -40 21 -18 0 -19 -2 -6 -11 12 -8 12 -10 1 -7 -8
2 -16 17 -18 34 -2 16 -10 72 -18 125 -22 144 -22 147 23 154 20 3 74 12 119
21 45 8 99 17 120 19 65 8 257 47 273 56 30 17 -57 6 -300 -37z m-277 -161 c4
-21 9 -53 13 -70 l7 -33 -91 0 -90 0 -11 31 c-19 56 -15 67 32 79 23 6 56 14
72 19 55 16 62 14 68 -26z"/>
<path d="M1015 1103 c-16 -3 -36 -10 -44 -16 -11 -10 -9 -13 10 -17 27 -7 36
-34 38 -115 2 -96 3 -96 90 -93 l76 3 3 97 3 97 -58 3 c-53 3 -58 5 -57 26 1
23 -2 23 -61 15z"/>
<path d="M1218 1018 c-5 -114 -4 -139 6 -145 6 -4 35 -8 64 -10 63 -4 66 1 77
120 l7 77 -76 0 -76 0 -2 -42z"/>
<path d="M1523 843 c-35 -7 -47 -29 -36 -66 8 -30 12 -32 58 -35 144 -7 272 5
300 28 8 7 15 22 14 34 0 11 -3 15 -6 9 -3 -8 -24 -13 -56 -13 -28 0 -70 -7
-94 -16 -41 -16 -43 -16 -102 11 -54 25 -59 30 -43 41 18 14 11 16 -35 7z"/>
<path d="M2500 264 c-240 -113 -573 -208 -866 -248 l-99 -14 69 -1 c38 0 105
6 150 14 116 23 338 74 361 85 11 5 38 14 60 20 44 13 128 45 250 95 141 58
165 70 165 77 0 12 -10 9 -90 -28z"/>
<path d="M13 186 c10 -8 50 -24 90 -37 40 -12 75 -27 79 -33 4 -6 8 -8 8 -5 0
4 15 3 33 -1 140 -36 254 -62 332 -74 183 -30 238 -36 317 -35 l93 1 -127 14
c-105 12 -259 36 -433 70 -75 14 -199 48 -291 79 -109 38 -129 42 -101 21z"/>
</g>
</svg>
